<svg
    width="40"
    height="34"
    viewBox="0 0 40 34"
    fill="none"
    xmlns="http://www.w3.org/2000/svg"
>
    <path
    d="M22.3459 21.3734C23.0589 21.3734 23.7559 21.1619 24.3488 20.7658C24.9417 20.3697 25.4037 19.8066 25.6766 19.1479C25.9495 18.4891 26.0209 17.7642 25.8818 17.0649C25.7426 16.3656 25.3993 15.7232 24.8951 15.219C24.3909 14.7148 23.7485 14.3715 23.0492 14.2324C22.3499 14.0933 21.625 14.1646 20.9662 14.4375C20.3075 14.7104 19.7444 15.1725 19.3483 15.7653C18.9522 16.3582 18.7407 17.0552 18.7407 17.7682C18.7407 18.7244 19.1206 19.6414 19.7966 20.3175C20.4727 20.9936 21.3897 21.3734 22.3459 21.3734ZM22.3459 15.8798C22.7194 15.8798 23.0845 15.9906 23.395 16.1981C23.7056 16.4056 23.9476 16.7005 24.0905 17.0456C24.2335 17.3906 24.2709 17.7703 24.198 18.1366C24.1251 18.503 23.9453 18.8394 23.6812 19.1035C23.4171 19.3676 23.0806 19.5475 22.7143 19.6204C22.348 19.6932 21.9683 19.6558 21.6232 19.5129C21.2781 19.37 20.9832 19.1279 20.7757 18.8174C20.5682 18.5068 20.4575 18.1417 20.4575 17.7682C20.4575 17.2674 20.6564 16.7871 21.0106 16.4329C21.3647 16.0788 21.845 15.8798 22.3459 15.8798Z"
    fill="black"
    />
    <path
    fill-rule="evenodd"
    clip-rule="evenodd"
    d="M9.57082 0H40V24.4206H35.1931V29.1845H30.4292V33.9914H0V9.57082H4.80687V4.80687H9.57082V0ZM30.4292 27.5107H33.4764V6.5236H6.52361V9.57082H30.4292V27.5107ZM35.1931 22.7039H38.2833V1.71674H11.2876V4.80687H35.1931V22.7039ZM28.7552 11.3019H1.71658V32.3319H28.7552V11.3019Z"
    fill="black"
    />
    <rect x="4.14893" y="21.3162" width="1.71674" height="8.44063" fill="black" />
    <rect x="14.02" y="21.3162" width="1.71674" height="8.44063" fill="black" />
    <rect x="17.0239" y="21.3162" width="1.71674" height="8.44063" fill="black" />
    <rect
    x="14.02"
    y="28.0403"
    width="1.71674"
    height="8.44063"
    transform="rotate(90 14.02 28.0403)"
    fill="black"
    />
    <rect
    x="18.5981"
    y="28.0403"
    width="1.71674"
    height="8.44063"
    transform="rotate(90 18.5981 28.0403)"
    fill="black"
    />
    <rect
    x="18.5981"
    y="21.3162"
    width="1.71674"
    height="8.44063"
    transform="rotate(90 18.5981 21.3162)"
    fill="black"
    />
    <rect
    x="14.02"
    y="21.3162"
    width="1.71674"
    height="8.44063"
    transform="rotate(90 14.02 21.3162)"
    fill="black"
    />
    <rect
    x="9.90479"
    y="15.52"
    width="1.71674"
    height="8.14026"
    transform="rotate(45 9.90479 15.52)"
    fill="black"
    />
    <rect
    width="1.71674"
    height="8.21154"
    transform="matrix(-0.707113 0.707101 0.707113 0.707101 9.95947 15.4697)"
    fill="black"
    />
</svg>